<?xml version="1.0" encoding="utf-8"?>
<!-- Generator: Adobe Illustrator 18.1.1, SVG Export Plug-In . SVG Version: 6.00 Build 0)  -->
<!DOCTYPE svg PUBLIC "-//W3C//DTD SVG 1.1//EN" "http://www.w3.org/Graphics/SVG/1.1/DTD/svg11.dtd">
<svg version="1.1" id="Layer_1" xmlns="http://www.w3.org/2000/svg" xmlns:xlink="http://www.w3.org/1999/xlink" x="0px" y="0px"
	 width="64px" height="64px" viewBox="0 0 64 64" style="enable-background:new 0 0 64 64;" xml:space="preserve">
<style type="text/css">
	.st0{fill:#A6042D;}
</style>
<path id="circle" class="st0" d="M32,0C14.349,0,0,14.362,0,32s14.349,32,32,32c17.638,0,32-14.349,32-32S49.651,0,32,0z M32,61.837
	c-16.448,0-29.824-13.376-29.824-29.824C2.176,15.565,15.552,2.176,32,2.176S61.824,15.552,61.824,32S48.448,61.837,32,61.837z"/>
<path id="arrow" class="st0" d="M12.812,23.023c-1,0.375-1.5,1.25-1.625,2.138c6.275,4.887,12.537,9.65,18.8,14.925
	c1.375,1.25,2.513,1.125,3.888,0c6.275-5.263,12.662-10.025,18.937-14.925c-0.25-1.138-0.75-1.763-1.625-2.138l-17.812,8.775
	c-0.875,0.375-1.888,0.5-3.013,0"/>
</svg>
